<?xml version="1.0" standalone="no"?>
<!DOCTYPE svg PUBLIC "-//W3C//DTD SVG 20010904//EN"
 "http://www.w3.org/TR/2001/REC-SVG-20010904/DTD/svg10.dtd">
<svg version="1.0" xmlns="http://www.w3.org/2000/svg"
 width="32.000000pt" height="32.000000pt" viewBox="0 0 32.000000 32.000000"
 preserveAspectRatio="xMidYMid meet">

<g transform="translate(0.000000,32.000000) scale(0.100000,-0.100000)"
fill="#000000" stroke="none">
<path d="M115 206 c-21 -15 -25 -67 -5 -90 17 -22 73 -20 93 2 52 57 -25 134
-88 88z m65 -14 c0 -4 -13 -16 -30 -25 -29 -18 -30 -18 -30 1 0 10 3 22 7 25
9 10 53 9 53 -1z m20 -35 c0 -21 -22 -37 -49 -37 l-26 0 30 25 c34 28 45 31
45 12z"/>
</g>
</svg>
